<?xml version="1.0" encoding="utf-8"?>
<!-- Generator: Adobe Illustrator 26.3.1, SVG Export Plug-In . SVG Version: 6.00 Build 0)  -->
<svg version="1.1" id="Ebene_1" xmlns="http://www.w3.org/2000/svg" xmlns:xlink="http://www.w3.org/1999/xlink" x="0px" y="0px"
	 viewBox="0 0 93.78 92.36" style="enable-background:new 0 0 93.78 92.36;" xml:space="preserve">
<style type="text/css">
	.st0{fill:#2B2D42;}
	.st1{fill:#D90429;}
</style>
<g>
	<path class="st0" d="M22.83,23.51v45.33c0,0.55,0.45,1,1,1h26.11c0.55,0,1-0.45,1-1v-6.78c0-0.55-0.45-1-1-1H35.17
		c-0.55,0-1-0.45-1-1V23.51c0-0.55-0.45-1-1-1h-9.33C23.28,22.51,22.83,22.96,22.83,23.51z"/>
	<path class="st1" d="M42.61,23.51v7.56c0,0.55,0.45,1,1,1h15.78c0.55,0,1,0.45,1,1v7.33c0,0.55-0.45,1-1,1H43.61
		c-0.55,0-1,0.45-1,1v7.44c0,0.55,0.45,1,1,1h15.78c0.55,0,1,0.45,1,1v17c0,0.55,0.45,1,1,1h8.56c0.55,0,1-0.45,1-1V23.51
		c0-0.55-0.45-1-1-1H43.61C43.06,22.51,42.61,22.96,42.61,23.51z"/>
</g>
<path class="st0" d="M9.72,81.79V10.58c0-0.55,0.45-1,1-1h72.33c0.55,0,1,0.45,1,1v57.76c0,0.55,0.45,1,1,1h7.72c0.55,0,1-0.45,1-1
	V1c0-0.55-0.45-1-1-1H1C0.45,0,0,0.45,0,1v90.36c0,0.55,0.45,1,1,1h68c0.55,0,1-0.45,1-1v-7.57c0-0.55-0.45-1-1-1H10.72
	C10.17,82.79,9.72,82.34,9.72,81.79z"/>
</svg>
